<?xml version="1.0" encoding="UTF-8"?>
<svg version="1.1" xmlns="http://www.w3.org/2000/svg" width="512" height="512">
<path d="M0 0 C168.96 0 337.92 0 512 0 C512 168.96 512 337.92 512 512 C343.04 512 174.08 512 0 512 C0 343.04 0 174.08 0 0 Z " fill="#FEFEFE" transform="translate(0,0)"/>
<path d="M0 0 C24.75 0 49.5 0 75 0 C75.029729 7.91093628 75.029729 7.91093628 75.06005859 15.98168945 C75.1269826 33.41207501 75.20452335 50.84240142 75.28752708 68.27271748 C75.3375903 78.84008152 75.38403385 89.40743805 75.421875 99.97485352 C75.45487714 109.18835285 75.49475354 118.40179278 75.54279006 127.61522645 C75.56797344 132.49097717 75.5897786 137.36668891 75.60334396 142.24248695 C75.61623866 146.83811467 75.63837192 151.43360811 75.66738319 156.02916145 C75.67640135 157.70964856 75.68213562 159.39015725 75.68421364 161.07066727 C75.71108824 179.51435161 78.10881813 195.0406803 91.5 208.81640625 C106.53804337 221.95119725 123.93481836 223.13715658 143.00732422 222.23193359 C153.61930077 221.40950108 165.77726387 218.09535233 173.5625 210.5 C174.366875 210.005 175.17125 209.51 176 209 C184.5551915 211.38234629 192.73896533 215.05165941 200.92797852 218.46508789 C210.6458299 222.71170419 210.6458299 222.71170419 221 223 C223.23481692 220.24515675 223.23481692 220.24515675 223.0100708 217.43457031 C221.81859769 213.38317295 219.94237202 210.40656722 217.66278839 206.87513733 C191.89443516 166.91745572 190.31141052 130.51372191 191.98325396 84.04151154 C192.36477453 73.23702534 192.50785355 62.42894818 192.66952896 51.61936378 C192.92788418 34.73764415 193.48674588 17.88035766 194 1 C218.09 1 242.18 1 267 1 C267.06796046 24.08913216 267.12312272 47.17818219 267.15543652 70.2673893 C267.17084526 80.99030792 267.19181886 91.71315956 267.22631836 102.43603516 C267.25640561 111.79206434 267.27561843 121.14804496 267.28226548 130.50412118 C267.28614532 135.4490329 267.29513534 140.39380582 267.31719017 145.33867264 C267.49510465 186.93637632 264.77680012 223.03130774 234.8125 254.6875 C211.96428588 276.73458459 177.26306204 287.4777885 146 288 C145.19401367 288.02433105 144.38802734 288.04866211 143.55761719 288.07373047 C105.95942597 289.1473929 64.94744495 283.23053459 36 257 C35.18273437 256.26394531 34.36546875 255.52789062 33.5234375 254.76953125 C22.36528781 244.18137992 14.88183511 232.09748147 9 218 C8.61199219 217.13632812 8.22398437 216.27265625 7.82421875 215.3828125 C0.57303431 197.85678371 -0.15623162 177.52118548 -0.11352539 158.82202148 C-0.11324298 157.08672589 -0.11340231 155.35143017 -0.1139679 153.61613464 C-0.11425376 148.92672394 -0.10839109 144.23733903 -0.10139394 139.54793429 C-0.09512532 134.63922174 -0.09455383 129.73050854 -0.09336853 124.8217926 C-0.09026554 115.53602003 -0.08206609 106.25025928 -0.07201904 96.9644919 C-0.06082581 86.38891165 -0.05533937 75.81333082 -0.05032361 65.23774612 C-0.0398826 43.49182268 -0.02154998 21.74591546 0 0 Z " fill="#1C7ABE" transform="translate(120,114)"/>
</svg>
